<svg xmlns="http://www.w3.org/2000/svg" viewBox="0 0 24 29"><g id="Ebene_2" data-name="Ebene 2"><path id="Combined-Shape" d="M20,0a2.6,2.6,0,0,1,1.89.76,2.45,2.45,0,0,1,.78,1.84V27.68L12,21.63,1.33,27.68V2.6A2.45,2.45,0,0,1,2.11.76,2.6,2.6,0,0,1,4,0Z" style="fill:#eba024"/><path d="M24,29,12,22.66,0,29V2.72A2.53,2.53,0,0,1,.87.79,3.12,3.12,0,0,1,3,0H21a3.08,3.08,0,0,1,2.12.79A2.51,2.51,0,0,1,24,2.72ZM12,21.18l10.69,5.65V2.72a1.24,1.24,0,0,0-.44-1A1.76,1.76,0,0,0,21,1.31H3a1.76,1.76,0,0,0-1.25.45,1.24,1.24,0,0,0-.44,1V26.83Z" style="fill:#ce7b02"/><path d="M3.83,9H6.05a4.26,4.26,0,0,1,2.2.43,1.49,1.49,0,0,1,.69,1.37,1.72,1.72,0,0,1-.3,1.05,1.21,1.21,0,0,1-.8.5v0a1.61,1.61,0,0,1,1,.57,1.86,1.86,0,0,1,.3,1.1,1.83,1.83,0,0,1-.71,1.53,3.07,3.07,0,0,1-1.91.55H3.83Zm1.51,2.82h.88a1.59,1.59,0,0,0,.89-.19A.7.7,0,0,0,7.38,11a.65.65,0,0,0-.29-.59,2.11,2.11,0,0,0-1-.17H5.34Zm0,1.2v1.87h1a1.47,1.47,0,0,0,.92-.24.89.89,0,0,0,.3-.74c0-.59-.43-.89-1.27-.89Z" style="fill:#fff"/><path d="M10.54,16.09V9h1.52v7.14Z" style="fill:#fff"/><path d="M20.33,12.51a3.88,3.88,0,0,1-.87,2.72,3.25,3.25,0,0,1-2.52.95,3.22,3.22,0,0,1-2.52-.95,3.86,3.86,0,0,1-.88-2.73,3.85,3.85,0,0,1,.88-2.73A3.33,3.33,0,0,1,17,8.83a3.25,3.25,0,0,1,2.51.95A3.89,3.89,0,0,1,20.33,12.51Zm-5.21,0a3,3,0,0,0,.46,1.8,1.59,1.59,0,0,0,1.36.6c1.2,0,1.81-.8,1.81-2.4s-.6-2.42-1.8-2.42a1.63,1.63,0,0,0-1.37.61A3,3,0,0,0,15.12,12.51Z" style="fill:#fff"/></g></svg>