<?xml version="1.0" encoding="UTF-8"?>
<svg width="560px" height="560px" viewBox="0 0 560 560" version="1.1" xmlns="http://www.w3.org/2000/svg" xmlns:xlink="http://www.w3.org/1999/xlink">
    <title>wine-box</title>
    <g id="Page-1" stroke="none" stroke-width="1" fill="none" fill-rule="evenodd">
        <g id="wine-box" fill="#000000" fill-rule="nonzero">
            <path d="M460,246 L460,348 L399,348 L399,358 L460,358 L460,460 L100,460 L100,358 L152,358 L152,348 L100,348 L100,246 L460,246 Z M439.999701,377.896066 L119.999701,377.896066 L119.999701,440.102435 L439.999701,440.102435 L439.999701,377.896066 Z M389,348 L300,348 L300,358 L389,358 L389,348 Z M290,348 L261,348 L261,358 L290,358 L290,348 Z M251,348 L162,348 L162,358 L251,358 L251,348 Z M439.999701,265.896186 L119.999701,265.896186 L119.999701,328.102555 L439.999701,328.102555 L439.999701,265.896186 Z M359,100 C365.525457,100 370.834393,105.180949 370.9962,111.633065 L371,111.936424 L371.000399,203.930857 C384.496943,208.010025 394.330092,216.800364 400.150343,230.109644 C401.277161,232.68636 402.239991,237.841776 403.042111,245.61512 L392.691711,245.619439 C392.10366,240.183507 391.428592,236.585391 390.668328,234.84688 C385.600416,223.257988 376.87051,216.281907 363.986632,213.648047 C361.14779,213.0677 359.28661,210.137443 359.829571,207.103133 C360.007643,206.107988 360.422191,205.225241 360.999093,204.508678 L361,139 L331,139 L331.00103,206.535431 C331.064522,206.757651 331.115939,206.986554 331.154344,207.221434 C331.655361,210.28554 329.752236,213.206365 326.903597,213.745277 C314.05101,216.17676 305.410099,223.05916 300.452519,234.682964 C299.700968,236.445091 299.034102,240.098019 298.453715,245.619746 L288.093269,245.614809 C288.880647,237.776134 289.82595,232.579282 290.932365,229.985124 C296.803546,216.219242 306.960424,207.343709 321.00016,203.58001 L321,111.936424 C321,105.445539 326.208544,100.16473 332.695025,100.00378 L333,100 L359,100 Z M218,100 C224.525457,100 229.834393,105.180949 229.9962,111.633065 L230,111.936424 L230.001108,203.791593 C243.94379,207.807855 254.086325,216.646858 260.061577,230.109644 C261.205213,232.68636 262.182413,237.841776 262.996505,245.61512 L252.491622,245.619439 C251.894794,240.183507 251.20965,236.585391 250.438039,234.84688 C245.294486,223.257988 236.434283,216.281907 223.358109,213.648047 C220.476895,213.0677 218.587937,210.137443 219.139002,207.103133 C219.2841,206.304188 219.583894,205.57769 219.999456,204.951472 L220,139 L190,139 L190.0001,205.008089 C190.418364,205.652781 190.715926,206.400616 190.852172,207.221434 C191.36078,210.28554 189.42882,213.206365 186.537019,213.745277 C173.489697,216.17676 164.717862,223.05916 159.685168,234.682964 C158.922229,236.445091 158.24526,240.098019 157.656078,245.619746 L147.138657,245.614809 C147.937964,237.776134 148.89759,232.579282 150.020769,229.985124 C155.904789,216.395049 166.029024,207.571211 180.000001,203.726713 L180,111.936424 C180,105.445539 185.208544,100.16473 191.695025,100.00378 L192,100 L218,100 Z M218,109.94702 L192,109.94702 C190.945638,109.94702 190.081835,110.758575 190.005486,111.787952 L190,111.936424 L190,129 L220,129 L220,111.936424 C220,110.887648 219.184122,110.028421 218.149262,109.952476 L218,109.94702 Z M359,109.94702 L333,109.94702 C331.945638,109.94702 331.081835,110.758575 331.005486,111.787952 L331,111.936424 L331,129 L361,129 L361,111.936424 C361,110.887648 360.184122,110.028421 359.149262,109.952476 L359,109.94702 Z" id="Combined-Shape"></path>
        </g>
    </g>
</svg>