<?xml version="1.0" encoding="UTF-8"?>
<svg width="560px" height="560px" viewBox="0 0 560 560" version="1.1" xmlns="http://www.w3.org/2000/svg" xmlns:xlink="http://www.w3.org/1999/xlink">
    <title>user</title>
    <g id="Page-1" stroke="none" stroke-width="1" fill="none" fill-rule="evenodd">
        <g id="user" fill="#000000" fill-rule="nonzero">
            <path d="M279.862223,118 C330.58735,118 371.752146,158.941523 371.752146,209.5 C371.752146,229.942821 365.022075,248.813357 353.651176,264.040868 C371.989613,272.956532 385.448561,280.677124 394.162203,287.334328 C399.374514,291.316522 404.33937,295.540202 409.055479,300.004664 C427.669147,317.625129 443.610839,342.349193 457.003053,374.115232 L457.003053,374.115232 L460.515,382.446 L461.61974,383.896742 L453.664187,389.955553 C408.044718,424.698545 350.000706,442 279.862223,442 C210.425124,442 152.841817,425.042844 107.432569,390.99261 L106.060258,389.955553 L98.1047053,383.896742 L98.406,383.5 L98,383.329817 L101.884768,374.115232 C115.276981,342.349193 131.218674,317.625129 149.832342,300.004664 C154.54845,295.540202 159.513307,291.316522 164.725618,287.334328 L165.533906,286.723908 C174.362357,280.131805 187.758462,272.513112 205.851094,263.741768 C194.61479,248.566919 187.972299,229.809372 187.972299,209.5 C187.972299,158.941523 229.137096,118 279.862223,118 Z M220.166648,279.063908 L219.427494,279.413058 C199.364433,288.927055 185.1176,296.923867 176.867519,303.226912 C172.213209,306.782795 167.785024,310.54992 163.581668,314.52899 C148.059672,329.222751 134.283622,350.077124 122.357064,377.1442 C163.650388,407.006445 216.052651,422 279.862223,422 C343.345226,422 395.537384,407.159522 436.732665,377.603327 C424.759814,350.312977 410.915849,329.305772 395.306153,314.52899 C391.102797,310.54992 386.674611,306.782795 382.020302,303.226912 C373.742383,296.902599 359.427175,288.87307 339.257035,279.316698 C323.23713,292.844361 302.501895,301 279.862223,301 C257.081088,301 236.228266,292.742123 220.166648,279.063908 Z M279.862223,138 C240.158514,138 207.972299,170.01164 207.972299,209.5 C207.972299,226.79321 214.14511,242.652503 224.418844,255.017228 L225.064465,254.717556 L226.119546,256.990324 C239.287771,271.720336 258.485396,281 279.862223,281 C300.348136,281 318.832706,272.477707 331.92734,258.803335 L333.823355,254.717556 L335.072106,255.296804 C345.485736,242.891994 351.752146,226.923827 351.752146,209.5 C351.752146,170.01164 319.565931,138 279.862223,138 Z" id="Combined-Shape"></path>
        </g>
    </g>
</svg>