<?xml version="1.0" encoding="utf-8"?>
<!-- Generator: Adobe Illustrator 14.0.0, SVG Export Plug-In . SVG Version: 6.00 Build 43363)  -->
<!DOCTYPE svg PUBLIC "-//W3C//DTD SVG 1.1//EN" "http://www.w3.org/Graphics/SVG/1.1/DTD/svg11.dtd">
<svg version="1.1" id="Ebene_1" xmlns="http://www.w3.org/2000/svg" xmlns:xlink="http://www.w3.org/1999/xlink" x="0px" y="0px"
	 width="40px" height="40px" viewBox="0 0 40 40" enable-background="new 0 0 40 40" xml:space="preserve">
<g>
	<defs>
		<path id="SVGID_1_" d="M6.585,37.593h26.83c0.474,0,0.858-0.385,0.858-0.858V9.535c0-0.229-0.092-0.45-0.256-0.611l-6.361-6.27
			c-0.161-0.158-0.378-0.247-0.603-0.247H6.585c-0.474,0-0.858,0.384-0.858,0.858v33.469C5.727,37.208,6.111,37.593,6.585,37.593z
			 M7.443,3.266L6.585,4.124h20.469l-0.603-0.247l6.362,6.27l-0.256-0.611v27.199l0.857-0.857H6.585l0.858,0.857V3.266z"/>
	</defs>
	<clipPath id="SVGID_2_">
		<use xlink:href="#SVGID_1_"  overflow="visible"/>
	</clipPath>
	<g clip-path="url(#SVGID_2_)">
		<defs>
			<rect id="SVGID_3_" x="-1.422" y="-1.586" width="42.897" height="42.896"/>
		</defs>
		<clipPath id="SVGID_4_">
			<use xlink:href="#SVGID_3_"  overflow="visible"/>
		</clipPath>
		<rect x="4.297" y="0.978" clip-path="url(#SVGID_4_)" width="31.406" height="38.044"/>
	</g>
</g>
<g>
	<defs>
		<path id="SVGID_5_" d="M26.574,3.191l6.362,6.362l0.263-0.482l-6.361-1.383l0.225,0.279V2.989L26.574,3.191z M26.491,7.968
			c0,0.135,0.094,0.251,0.225,0.279l6.362,1.383c0.278,0.061,0.465-0.28,0.263-0.481l-6.361-6.362
			c-0.181-0.18-0.488-0.053-0.488,0.202V7.968z"/>
	</defs>
	<clipPath id="SVGID_6_">
		<use xlink:href="#SVGID_5_"  overflow="visible"/>
	</clipPath>
	<g clip-path="url(#SVGID_6_)">
		<defs>
			<rect id="SVGID_7_" x="-1.422" y="-1.586" width="42.897" height="42.896"/>
		</defs>
		<clipPath id="SVGID_8_">
			<use xlink:href="#SVGID_7_"  overflow="visible"/>
		</clipPath>
		<rect x="25.061" y="1.272" clip-path="url(#SVGID_8_)" width="9.795" height="9.795"/>
	</g>
</g>
<g>
	<defs>
		<path id="SVGID_9_" d="M11.24,20.754v-4.701l-0.429,0.429h4.7l-0.429-0.429v4.701l0.429-0.429h-4.7L11.24,20.754z M15.511,21.184
			c0.237,0,0.429-0.192,0.429-0.429v-4.701c0-0.237-0.192-0.429-0.429-0.429h-4.7c-0.237,0-0.429,0.192-0.429,0.429v4.701
			c0,0.237,0.192,0.429,0.429,0.429H15.511z"/>
	</defs>
	<clipPath id="SVGID_10_">
		<use xlink:href="#SVGID_9_"  overflow="visible"/>
	</clipPath>
	<g clip-path="url(#SVGID_10_)">
		<defs>
			<rect id="SVGID_11_" x="-1.422" y="-1.586" width="42.897" height="42.896"/>
		</defs>
		<clipPath id="SVGID_12_">
			<use xlink:href="#SVGID_11_"  overflow="visible"/>
		</clipPath>
		<rect x="8.952" y="14.195" clip-path="url(#SVGID_12_)" width="8.418" height="8.418"/>
	</g>
</g>
<g>
	<defs>
		<path id="SVGID_13_" d="M12.609,19.652c0.167,0.168,0.439,0.168,0.606,0l3.793-3.792c0.167-0.167,0.167-0.439,0-0.607
			c-0.167-0.167-0.439-0.167-0.606,0l-3.793,3.793h0.606l-1.181-1.182c-0.167-0.167-0.439-0.167-0.606,0
			c-0.167,0.167-0.167,0.439,0,0.607L12.609,19.652z"/>
	</defs>
	<clipPath id="SVGID_14_">
		<use xlink:href="#SVGID_13_"  overflow="visible"/>
	</clipPath>
	<g clip-path="url(#SVGID_14_)">
		<defs>
			<rect id="SVGID_15_" x="-1.422" y="-1.586" width="42.897" height="42.896"/>
		</defs>
		<clipPath id="SVGID_16_">
			<use xlink:href="#SVGID_15_"  overflow="visible"/>
		</clipPath>
		<rect x="9.872" y="13.698" clip-path="url(#SVGID_16_)" width="8.692" height="7.51"/>
	</g>
</g>
<g>
	<defs>
		<path id="SVGID_17_" d="M29.082,18.833c0.236,0,0.429-0.192,0.429-0.429c0-0.237-0.192-0.429-0.429-0.429H18.755
			c-0.237,0-0.429,0.192-0.429,0.429c0,0.237,0.192,0.429,0.429,0.429H29.082z"/>
	</defs>
	<clipPath id="SVGID_18_">
		<use xlink:href="#SVGID_17_"  overflow="visible"/>
	</clipPath>
	<g clip-path="url(#SVGID_18_)">
		<defs>
			<rect id="SVGID_19_" x="-1.422" y="-1.586" width="42.897" height="42.896"/>
		</defs>
		<clipPath id="SVGID_20_">
			<use xlink:href="#SVGID_19_"  overflow="visible"/>
		</clipPath>
		<rect x="16.896" y="16.545" clip-path="url(#SVGID_20_)" width="14.044" height="3.718"/>
	</g>
</g>
<g>
	<defs>
		<path id="SVGID_21_" d="M11.24,27.669v-4.7l-0.429,0.429h4.7l-0.429-0.429v4.7l0.429-0.429h-4.7L11.24,27.669z M15.511,28.099
			c0.237,0,0.429-0.192,0.429-0.43v-4.7c0-0.237-0.192-0.429-0.429-0.429h-4.7c-0.237,0-0.429,0.191-0.429,0.429v4.7
			c0,0.237,0.192,0.43,0.429,0.43H15.511z"/>
	</defs>
	<clipPath id="SVGID_22_">
		<use xlink:href="#SVGID_21_"  overflow="visible"/>
	</clipPath>
	<g clip-path="url(#SVGID_22_)">
		<defs>
			<rect id="SVGID_23_" x="-1.422" y="-1.586" width="42.897" height="42.896"/>
		</defs>
		<clipPath id="SVGID_24_">
			<use xlink:href="#SVGID_23_"  overflow="visible"/>
		</clipPath>
		<rect x="8.952" y="21.109" clip-path="url(#SVGID_24_)" width="8.418" height="8.419"/>
	</g>
</g>
<g>
	<defs>
		<path id="SVGID_25_" d="M12.609,26.567c0.167,0.168,0.439,0.168,0.606,0l3.793-3.793c0.167-0.167,0.167-0.438,0-0.606
			c-0.167-0.167-0.439-0.167-0.606,0l-3.793,3.793h0.606l-1.181-1.182c-0.167-0.167-0.439-0.167-0.606,0
			c-0.167,0.168-0.167,0.439,0,0.606L12.609,26.567z"/>
	</defs>
	<clipPath id="SVGID_26_">
		<use xlink:href="#SVGID_25_"  overflow="visible"/>
	</clipPath>
	<g clip-path="url(#SVGID_26_)">
		<defs>
			<rect id="SVGID_27_" x="-1.422" y="-1.586" width="42.897" height="42.896"/>
		</defs>
		<clipPath id="SVGID_28_">
			<use xlink:href="#SVGID_27_"  overflow="visible"/>
		</clipPath>
		<rect x="9.872" y="20.613" clip-path="url(#SVGID_28_)" width="8.692" height="7.51"/>
	</g>
</g>
<g>
	<defs>
		<path id="SVGID_29_" d="M29.082,25.748c0.236,0,0.429-0.192,0.429-0.429c0-0.237-0.192-0.43-0.429-0.43H18.755
			c-0.237,0-0.429,0.192-0.429,0.43c0,0.236,0.192,0.429,0.429,0.429H29.082z"/>
	</defs>
	<clipPath id="SVGID_30_">
		<use xlink:href="#SVGID_29_"  overflow="visible"/>
	</clipPath>
	<g clip-path="url(#SVGID_30_)">
		<defs>
			<rect id="SVGID_31_" x="-1.422" y="-1.586" width="42.897" height="42.896"/>
		</defs>
		<clipPath id="SVGID_32_">
			<use xlink:href="#SVGID_31_"  overflow="visible"/>
		</clipPath>
		<rect x="16.896" y="23.46" clip-path="url(#SVGID_32_)" width="14.044" height="3.718"/>
	</g>
</g>
</svg>
