<?xml version="1.0" encoding="utf-8"?>
<!-- Generator: Adobe Illustrator 14.0.0, SVG Export Plug-In . SVG Version: 6.00 Build 43363)  -->
<!DOCTYPE svg PUBLIC "-//W3C//DTD SVG 1.1//EN" "http://www.w3.org/Graphics/SVG/1.1/DTD/svg11.dtd">
<svg version="1.1" id="Ebene_1" xmlns="http://www.w3.org/2000/svg" xmlns:xlink="http://www.w3.org/1999/xlink" x="0px" y="0px"
	 width="40px" height="40px" viewBox="0 0 40 40" enable-background="new 0 0 40 40" xml:space="preserve">
<g>
	<defs>
		<path id="SVGID_1_" d="M12.541,12.508c-2.609,0-4.724,2.115-4.724,4.724c0,2.608,2.115,4.724,4.724,4.724
			c2.608,0,4.723-2.115,4.723-4.724C17.264,14.623,15.149,12.508,12.541,12.508z M12.541,20.299c-1.694,0-3.067-1.374-3.067-3.067
			c0-1.694,1.374-3.067,3.067-3.067s3.067,1.373,3.067,3.067C15.607,18.925,14.234,20.299,12.541,20.299z"/>
	</defs>
	<clipPath id="SVGID_2_">
		<use xlink:href="#SVGID_1_"  overflow="visible"/>
	</clipPath>
	<g clip-path="url(#SVGID_2_)">
		<defs>
			<rect id="SVGID_3_" x="-0.188" y="-1.408" width="41.408" height="41.408"/>
		</defs>
		<clipPath id="SVGID_4_">
			<use xlink:href="#SVGID_3_"  overflow="visible"/>
		</clipPath>
		<rect x="6.437" y="11.127" clip-path="url(#SVGID_4_)" width="12.208" height="12.208"/>
	</g>
</g>
<g>
	<defs>
		<path id="SVGID_5_" d="M20.331,12.508c-2.609,0-4.724,2.115-4.724,4.724c0,2.608,2.115,4.724,4.724,4.724
			c2.608,0,4.724-2.115,4.724-4.724C25.055,14.623,22.939,12.508,20.331,12.508z M20.331,20.299c-1.694,0-3.067-1.374-3.067-3.067
			c0-1.694,1.373-3.067,3.067-3.067c1.693,0,3.067,1.373,3.067,3.067C23.398,18.925,22.024,20.299,20.331,20.299z"/>
	</defs>
	<clipPath id="SVGID_6_">
		<use xlink:href="#SVGID_5_"  overflow="visible"/>
	</clipPath>
	<g clip-path="url(#SVGID_6_)">
		<defs>
			<rect id="SVGID_7_" x="-0.188" y="-1.408" width="41.408" height="41.408"/>
		</defs>
		<clipPath id="SVGID_8_">
			<use xlink:href="#SVGID_7_"  overflow="visible"/>
		</clipPath>
		<rect x="14.228" y="11.127" clip-path="url(#SVGID_8_)" width="12.207" height="12.208"/>
	</g>
</g>
<g>
	<defs>
		<path id="SVGID_9_" d="M28.121,12.508c-2.608,0-4.723,2.115-4.723,4.724c0,2.608,2.114,4.724,4.723,4.724
			c2.609,0,4.724-2.115,4.724-4.724C32.845,14.623,30.73,12.508,28.121,12.508z M28.121,20.299c-1.693,0-3.066-1.374-3.066-3.067
			c0-1.694,1.373-3.067,3.066-3.067c1.694,0,3.067,1.373,3.067,3.067C31.188,18.925,29.815,20.299,28.121,20.299z"/>
	</defs>
	<clipPath id="SVGID_10_">
		<use xlink:href="#SVGID_9_"  overflow="visible"/>
	</clipPath>
	<g clip-path="url(#SVGID_10_)">
		<defs>
			<rect id="SVGID_11_" x="-0.188" y="-1.408" width="41.408" height="41.408"/>
		</defs>
		<clipPath id="SVGID_12_">
			<use xlink:href="#SVGID_11_"  overflow="visible"/>
		</clipPath>
		<rect x="22.018" y="11.127" clip-path="url(#SVGID_12_)" width="12.207" height="12.208"/>
	</g>
</g>
<g>
	<defs>
		<path id="SVGID_13_" d="M16.436,19.629c-2.608,0-4.724,2.115-4.724,4.724s2.115,4.724,4.724,4.724
			c2.609,0,4.724-2.115,4.724-4.724S19.044,19.629,16.436,19.629z M16.436,27.42c-1.694,0-3.067-1.373-3.067-3.067
			c0-1.693,1.373-3.067,3.067-3.067s3.067,1.373,3.067,3.067S18.129,27.42,16.436,27.42z"/>
	</defs>
	<clipPath id="SVGID_14_">
		<use xlink:href="#SVGID_13_"  overflow="visible"/>
	</clipPath>
	<g clip-path="url(#SVGID_14_)">
		<defs>
			<rect id="SVGID_15_" x="-0.188" y="-1.408" width="41.408" height="41.408"/>
		</defs>
		<clipPath id="SVGID_16_">
			<use xlink:href="#SVGID_15_"  overflow="visible"/>
		</clipPath>
		<rect x="10.332" y="18.249" clip-path="url(#SVGID_16_)" width="12.207" height="12.207"/>
	</g>
</g>
<g>
	<defs>
		<path id="SVGID_17_" d="M24.226,19.629c-2.608,0-4.723,2.115-4.723,4.724s2.114,4.724,4.723,4.724
			c2.609,0,4.724-2.115,4.724-4.724S26.835,19.629,24.226,19.629z M24.226,27.42c-1.693,0-3.066-1.373-3.066-3.067
			s1.373-3.067,3.066-3.067c1.694,0,3.067,1.373,3.067,3.067S25.92,27.42,24.226,27.42z"/>
	</defs>
	<clipPath id="SVGID_18_">
		<use xlink:href="#SVGID_17_"  overflow="visible"/>
	</clipPath>
	<g clip-path="url(#SVGID_18_)">
		<defs>
			<rect id="SVGID_19_" x="-0.188" y="-1.408" width="41.408" height="41.408"/>
		</defs>
		<clipPath id="SVGID_20_">
			<use xlink:href="#SVGID_19_"  overflow="visible"/>
		</clipPath>
		<rect x="18.123" y="18.249" clip-path="url(#SVGID_20_)" width="12.208" height="12.207"/>
	</g>
</g>
<g>
	<defs>
		<path id="SVGID_21_" d="M20.331,26.75c-2.609,0-4.724,2.115-4.724,4.724c0,2.609,2.115,4.724,4.724,4.724
			c2.608,0,4.724-2.114,4.724-4.724C25.055,28.865,22.939,26.75,20.331,26.75z M20.331,34.541c-1.694,0-3.067-1.373-3.067-3.067
			c0-1.693,1.373-3.066,3.067-3.066c1.693,0,3.067,1.373,3.067,3.066C23.398,33.168,22.024,34.541,20.331,34.541z"/>
	</defs>
	<clipPath id="SVGID_22_">
		<use xlink:href="#SVGID_21_"  overflow="visible"/>
	</clipPath>
	<g clip-path="url(#SVGID_22_)">
		<defs>
			<rect id="SVGID_23_" x="-0.188" y="-1.408" width="41.408" height="41.408"/>
		</defs>
		<clipPath id="SVGID_24_">
			<use xlink:href="#SVGID_23_"  overflow="visible"/>
		</clipPath>
		<rect x="14.228" y="25.37" clip-path="url(#SVGID_24_)" width="12.207" height="12.208"/>
	</g>
</g>
<g>
	<defs>
		<path id="SVGID_25_" d="M21.011,9.997c-0.033-0.145-0.065-0.309-0.096-0.491c-0.162-0.964-0.199-1.97-0.037-2.899
			c0.264-1.512,1.015-2.583,2.391-3.083c0.215-0.078,0.326-0.316,0.247-0.531c-0.078-0.215-0.315-0.326-0.53-0.248
			c-1.684,0.612-2.612,1.937-2.923,3.719c-0.181,1.034-0.14,2.129,0.036,3.178c0.033,0.197,0.068,0.377,0.104,0.536
			c0.022,0.097,0.04,0.167,0.05,0.206c0.06,0.221,0.288,0.351,0.508,0.292c0.221-0.06,0.351-0.288,0.292-0.508
			C21.044,10.14,21.029,10.082,21.011,9.997z"/>
	</defs>
	<clipPath id="SVGID_26_">
		<use xlink:href="#SVGID_25_"  overflow="visible"/>
	</clipPath>
	<g clip-path="url(#SVGID_26_)">
		<defs>
			<rect id="SVGID_27_" x="-0.188" y="-1.408" width="41.408" height="41.408"/>
		</defs>
		<clipPath id="SVGID_28_">
			<use xlink:href="#SVGID_27_"  overflow="visible"/>
		</clipPath>
		<rect x="18.565" y="1.34" clip-path="url(#SVGID_28_)" width="6.356" height="10.73"/>
	</g>
</g>
</svg>
