<?xml version="1.0" encoding="utf-8"?>
<!-- Generator: Adobe Illustrator 23.0.1, SVG Export Plug-In . SVG Version: 6.00 Build 0)  -->
<svg version="1.1" id="Ebene_1" xmlns="http://www.w3.org/2000/svg" xmlns:xlink="http://www.w3.org/1999/xlink" x="0px" y="0px"
	 viewBox="0 0 40 40" style="enable-background:new 0 0 40 40;" xml:space="preserve">
<title>EA54-products</title>
<desc>Created with Sketch.</desc>
<g id="EA54-products">
	<path id="Path-18" d="M30,10.7c-0.3-0.4-0.1-1,0.3-1.3s1-0.1,1.3,0.3l1.4,2.5c0.4,0.7-0.1,1.4-0.8,1.3c-5.3-0.8-9.6-1.3-12.5-1.3
		c-3,0-6.9,0.4-11.8,1.3c-0.7,0.1-1.3-0.7-0.8-1.3l1.5-2.5c0.3-0.4,0.8-0.6,1.3-0.3c0.4,0.3,0.6,0.8,0.3,1.3l-0.6,0.8
		c4.1-0.7,7.5-1,10.1-1s6.3,0.3,11,1L30,10.7z"/>
	<path id="Path-28" d="M31.8,16.4c-0.3-0.4-0.1-1,0.1-1.3c0.4-0.3,1-0.1,1.3,0.1c1.1,1.5,1.7,3.7,1.8,6.5v10.7
		c0,2.7-1.5,4.2-4.4,4.4H9.3c-2.8,0-4.4-1.5-4.4-4.4V21.7c0.1-2.3,0.7-4.4,2-6.3c0.3-0.4,0.8-0.6,1.3-0.3c0.4,0.3,0.6,0.8,0.3,1.3
		c-1.1,1.7-1.7,3.5-1.7,5.5v10.7c0,1.8,0.7,2.7,2.7,2.7h21.2c1.8-0.1,2.7-1,2.7-2.7V21.8C33.2,19.5,32.7,17.6,31.8,16.4z"/>
	<path id="Rectangle-7" d="M11,23.3V29h17.9v-5.8H11z M10.7,22.4h18.4c0.3,0,0.6,0.3,0.6,0.6v6.3c0,0.3-0.3,0.6-0.6,0.6H10.7
		c-0.3,0-0.6-0.3-0.6-0.6V23C10.2,22.7,10.3,22.4,10.7,22.4z"/>
	<path id="Line" d="M13.8,25.6c-0.3,0-0.4-0.1-0.4-0.4c0-0.3,0.1-0.4,0.4-0.4h8c0.3,0,0.4,0.1,0.4,0.4c0,0.3-0.1,0.4-0.4,0.4H13.8z"
		/>
	<path id="Line-2" d="M13.8,27.6c-0.3,0-0.4-0.1-0.4-0.4c0-0.3,0.1-0.4,0.4-0.4h12c0.3,0,0.4,0.1,0.4,0.4c0,0.3-0.1,0.4-0.4,0.4
		H13.8z"/>
	<path id="Path-29" d="M8.7,7.5c0.4,0.1,0.7,0.7,0.4,1.1C9,9,8.5,9.3,8,9L6.6,8.3C6.4,8.2,6.1,7.9,6.1,7.5V5.1
		c0-0.3,0.1-0.4,0.3-0.6c0.8-0.8,1.8-1.4,3-1.4h21.2h0.1c0.8,0.1,1.5,0.3,2,0.6c0.7,0.3,1,0.8,1,1.5v2.3c0,0.4-0.1,0.7-0.6,0.8
		L31.5,9c-0.4,0.1-1,0-1.1-0.4c-0.1-0.4,0-1,0.4-1.1l1-0.4V5.4c0,0,0,0-0.1,0C31.4,5.2,31,5.1,30.3,5H9.2c-0.6,0-1,0.1-1.4,0.6v1.5
		L8.7,7.5z"/>
	<path id="Line-3" d="M11.7,9.2c-0.3,0-0.4-0.1-0.4-0.4s0.1-0.4,0.4-0.4H28c0.3,0,0.4,0.1,0.4,0.4S28.3,9.2,28,9.2H11.7z"/>
</g>
</svg>
