<?xml version="1.0" encoding="utf-8"?>
<!-- Generator: Adobe Illustrator 14.0.0, SVG Export Plug-In . SVG Version: 6.00 Build 43363)  -->
<!DOCTYPE svg PUBLIC "-//W3C//DTD SVG 1.1//EN" "http://www.w3.org/Graphics/SVG/1.1/DTD/svg11.dtd">
<svg version="1.1" id="Ebene_1" xmlns="http://www.w3.org/2000/svg" xmlns:xlink="http://www.w3.org/1999/xlink" x="0px" y="0px"
	 width="40px" height="40px" viewBox="0 0 40 40" enable-background="new 0 0 40 40" xml:space="preserve">
<path fill-rule="evenodd" clip-rule="evenodd" d="M26.865,25.685H8.9c-0.305,0-0.582-0.18-0.705-0.457L1.977,11.205
	c-0.102-0.23-0.085-0.495,0.046-0.71c0.131-0.215,0.359-0.353,0.61-0.368l20.153-1.265c0.426-0.026,0.79,0.295,0.817,0.719
	c0.026,0.424-0.297,0.79-0.722,0.816L3.834,11.592l5.567,12.555h16.838l3.326-15.71c0.06-0.284,0.275-0.51,0.556-0.584l6.909-1.839
	c0.413-0.11,0.834,0.134,0.943,0.545c0.109,0.41-0.135,0.832-0.546,0.941l-6.452,1.717l-3.356,15.858
	C27.544,25.431,27.229,25.685,26.865,25.685"/>
<path fill-rule="evenodd" clip-rule="evenodd" d="M13.08,34.013c-1.583,0-2.87-1.285-2.87-2.864s1.288-2.865,2.87-2.865
	s2.87,1.286,2.87,2.865S14.662,34.013,13.08,34.013 M13.08,29.821c-0.733,0-1.329,0.596-1.329,1.327s0.596,1.326,1.329,1.326
	s1.329-0.595,1.329-1.326S13.812,29.821,13.08,29.821"/>
<path fill-rule="evenodd" clip-rule="evenodd" d="M21.772,34.013c-1.582,0-2.87-1.285-2.87-2.864s1.288-2.865,2.87-2.865
	c1.583,0,2.87,1.286,2.87,2.865S23.355,34.013,21.772,34.013 M21.772,29.821c-0.732,0-1.328,0.596-1.328,1.327
	s0.596,1.326,1.328,1.326c0.733,0,1.33-0.595,1.33-1.326S22.506,29.821,21.772,29.821"/>
</svg>
