<?xml version="1.0" encoding="UTF-8"?>
<svg width="560px" height="560px" viewBox="0 0 560 560" version="1.1" xmlns="http://www.w3.org/2000/svg" xmlns:xlink="http://www.w3.org/1999/xlink">
    <title>shop</title>
    <g id="Page-1" stroke="none" stroke-width="1" fill="none" fill-rule="evenodd">
        <g id="shop" fill="#000000" fill-rule="nonzero">
            <path d="M430.914634,270 C436.343874,270 440.762566,274.326671 440.910792,279.720095 L440.914634,280 L440.914634,450 C440.914634,455.42924 436.587963,459.847932 431.194539,459.996158 L430.914634,460 L129.085366,460 C123.656126,460 119.237434,455.673329 119.089208,450.279905 L119.085366,450 L119.085366,280 C119.085366,274.477153 123.562518,270 129.085366,270 C134.514606,270 138.933298,274.326671 139.081524,279.720095 L139.085366,280 L139.085,440 L420.914,440 L420.914634,280 C420.914634,274.57076 425.241305,270.152068 430.634729,270.003842 L430.914634,270 Z M174.359756,393 C171.598332,393 169.359756,390.761424 169.359756,388 C169.359756,385.311245 171.482063,383.118182 174.142866,383.00462 L174.359756,383 L200.548,383 L200.54878,278 C200.54878,275.238576 202.787357,273 205.54878,273 C208.237535,273 210.430599,275.122307 210.544161,277.78311 L210.54878,278 L210.548,383 L231.737,383 L231.737805,326.373543 C231.737805,325.168981 232.172528,324.007965 232.957099,323.101491 L233.130546,322.91122 L240.733,314.989 L240.733872,297 C240.733872,294.311245 242.856179,292.118182 245.516983,292.00462 L245.733872,292 L253.07094,292 C255.759695,292 257.952758,294.122307 258.066321,296.78311 L258.07094,297 L258.07,315.104 L265.633528,323.645458 C266.385385,324.494505 266.824533,325.571822 266.883432,326.69926 L266.890244,326.960247 L266.89,383 L350.457,383 L350.457317,278 C350.457317,275.238576 352.695893,273 355.457317,273 C358.146072,273 360.339135,275.122307 360.452698,277.78311 L360.457317,278 L360.457,383 L385.640244,383 C388.401668,383 390.640244,385.238576 390.640244,388 C390.640244,390.688755 388.517937,392.881818 385.857134,392.99538 L385.640244,393 L174.359756,393 Z M249.4,320.398 L249.341131,320.463216 L241.737,328.385 L241.737,383 L256.89,383 L256.89,328.856 L249.4,320.398 Z M451,100 C456.42924,100 460.847932,104.326671 460.996158,109.720095 L461,110 L461,191.637681 C461,192.058861 460.973962,192.47396 460.923407,192.881456 L460.864736,193.286361 L460.838,193.433 L460.856703,193.679032 C460.904382,194.395097 460.940206,195.113421 460.964111,195.833687 L460.991019,196.915505 L461,198 C461,226.823884 441.884001,251 417,251 C403.236997,251 391.238452,243.604415 383.262736,232.117279 L382.965536,231.6846 L382.753,231.368 L382.587072,231.61618 C374.820435,243.033523 363.132747,250.532833 349.67326,250.978937 L349.147972,250.992742 L348.4,251 C334.577998,251 322.524536,243.578775 314.511517,232.050413 L314.2,231.597 L314.187072,231.61618 C306.420435,243.033523 294.732747,250.532833 281.27326,250.978937 L280.747972,250.992742 L280,251 C266.177998,251 254.124536,243.578775 246.111517,232.050413 L245.8,231.597 L245.787072,231.61618 C238.020435,243.033523 226.332747,250.532833 212.87326,250.978937 L212.347972,250.992742 L211.6,251 C197.777998,251 185.724536,243.578775 177.711517,232.050413 L177.4,231.597 L177.387072,231.61618 C169.620435,243.033523 157.932747,250.532833 144.47326,250.978937 L143.947972,250.992742 L143.2,251 C118.209326,251 99,226.740065 99,197.807971 C99,196.755976 99.0252499,195.707397 99.075552,194.663194 L99.1341976,193.620485 L99.151,193.378 L99.1354245,193.287352 C99.0797508,192.951945 99.040769,192.610897 99.0193618,192.265088 L99.0038455,191.917725 L99,191.637681 L99,110 C99,104.57076 103.326671,100.152068 108.720095,100.003842 L109,100 L451,100 Z M441,120 L118.999,120 L118.999,189.012 L119.017082,189.076142 C119.271828,190.037712 119.38571,191.052968 119.336315,192.096831 L119.310094,192.489572 L119.282837,192.762886 C119.095063,194.420717 118.999,196.105277 118.999,197.807971 C118.999,216.584474 130.414397,231 143.2,231 C155.857747,231 167.171575,216.871343 167.396586,198.369948 L167.400012,197.789797 L167.394089,197.07332 C167.375366,195.910969 167.31222,194.757778 167.205429,193.616535 L167.117163,192.762886 C166.45576,186.923428 170.94351,181.79745 176.779113,181.641109 L177.05363,181.637437 L177.74637,181.637437 C183.623166,181.637437 188.211504,186.673578 187.710083,192.489701 L187.682837,192.762886 C187.526359,194.144412 187.434263,195.544499 187.407911,196.958175 L187.4,197.807971 C187.4,216.584474 198.814397,231 211.6,231 C224.257747,231 235.571575,216.871343 235.796586,198.369948 L235.800012,197.789797 L235.794089,197.07332 C235.775366,195.910969 235.71222,194.757778 235.605429,193.616535 L235.517163,192.762886 C234.85576,186.923428 239.34351,181.79745 245.179113,181.641109 L245.45363,181.637437 L246.14637,181.637437 C252.023166,181.637437 256.611504,186.673578 256.110083,192.489701 L256.082837,192.762886 C255.926912,194.13953 255.834915,195.534605 255.808193,196.943189 L255.8,197.807971 C255.8,216.584474 267.214397,231 280,231 C292.657747,231 303.971575,216.871343 304.196586,198.369948 L304.200012,197.789797 L304.194089,197.07332 C304.175366,195.910969 304.11222,194.757778 304.005429,193.616535 L303.917163,192.762886 C303.25576,186.923428 307.74351,181.79745 313.579113,181.641109 L313.85363,181.637437 L314.54637,181.637437 C320.423166,181.637437 325.011504,186.673578 324.510083,192.489701 L324.482837,192.762886 C324.326912,194.13953 324.234915,195.534605 324.208193,196.943189 L324.2,197.807971 C324.2,216.584474 335.614397,231 348.4,231 C361.185603,231 372.6,216.584474 372.6,197.807971 C372.6,196.389059 372.533984,194.982741 372.403313,193.593989 L372.317163,192.762886 C371.655636,186.922334 376.145132,181.795798 381.981857,181.641034 L382.256425,181.637437 L383.372384,181.637749 C389.263652,181.639396 393.855241,186.700464 393.329916,192.528711 L393.301529,192.802456 C393.101384,194.509181 393,196.244875 393,198 C393,216.672605 404.328638,231 417,231 C429.671362,231 441,216.672605 441,198 C441,196.244875 440.898616,194.509181 440.698471,192.802456 C440.565042,191.664654 440.627357,190.55333 440.857345,189.500042 L440.951395,189.107841 L441,188.934 L441,120 Z" id="Combined-Shape"></path>
        </g>
    </g>
</svg>