<svg id="Ebene_1" data-name="Ebene 1" xmlns="http://www.w3.org/2000/svg" viewBox="0 0 24 29"><path id="Combined-Shape" d="M20,0a2.6,2.6,0,0,1,1.89.76,2.45,2.45,0,0,1,.78,1.84V27.68L12,21.63,1.33,27.68V2.6A2.45,2.45,0,0,1,2.11.76,2.6,2.6,0,0,1,4,0ZM18.2,10.06a.31.31,0,0,0-.2-.5l-3.45-.29-2-3.47a.3.3,0,0,0-.51,0L10,9.27l-3.44.29a.31.31,0,0,0-.2.5L9,13l-.87,4.36a.33.33,0,0,0,.12.31.3.3,0,0,0,.33,0l3.74-2.31L16,17.64a.28.28,0,0,0,.15,0h0a.3.3,0,0,0,.3-.3.33.33,0,0,0,0-.14L15.6,13Z" style="fill:#ff3a52"/><path d="M24,29,12,22.66,0,29V2.72A2.53,2.53,0,0,1,.87.79,3.12,3.12,0,0,1,3,0H21a3.08,3.08,0,0,1,2.12.79A2.51,2.51,0,0,1,24,2.72ZM12,21.18l10.69,5.65V2.72a1.24,1.24,0,0,0-.44-1A1.76,1.76,0,0,0,21,1.31H3a1.76,1.76,0,0,0-1.25.45,1.24,1.24,0,0,0-.44,1V26.83Z" style="fill:#d0021b"/></svg>