<svg xmlns="http://www.w3.org/2000/svg" viewBox="0 0 24 29"><g id="Ebene_3" data-name="Ebene 3"><path id="Combined-Shape" d="M20,0a2.6,2.6,0,0,1,1.89.76,2.45,2.45,0,0,1,.78,1.84V27.68L12,21.63,1.33,27.68V2.6A2.45,2.45,0,0,1,2.11.76,2.6,2.6,0,0,1,4,0Z" style="fill:#80a83e"/><path d="M24,29,12,22.66,0,29V2.72A2.53,2.53,0,0,1,.87.79,3.12,3.12,0,0,1,3,0H21a3.08,3.08,0,0,1,2.12.79A2.51,2.51,0,0,1,24,2.72ZM12,21.18l10.69,5.65V2.72a1.24,1.24,0,0,0-.44-1A1.76,1.76,0,0,0,21,1.31H3a1.76,1.76,0,0,0-1.25.45,1.24,1.24,0,0,0-.44,1V26.83Z" style="fill:#718a00"/><path d="M7.65,9H9.18L6.75,16.17H5.1L2.68,9H4.21l1.34,4.24c.08.26.16.55.24.88s.12.57.14.7a13.29,13.29,0,0,1,.37-1.58Z" style="fill:#fff"/><path d="M14.19,16.17H10.08V9h4.11v1.24h-2.6v1.56H14v1.24H11.59v1.85h2.6Z" style="fill:#fff"/><path d="M18.39,12.16h2.83v3.7a8,8,0,0,1-1.29.31,8.55,8.55,0,0,1-1.25.09,3.14,3.14,0,0,1-2.47-1,4,4,0,0,1-.85-2.72,3.6,3.6,0,0,1,1-2.7,3.77,3.77,0,0,1,2.74-1,5.33,5.33,0,0,1,2.12.44l-.5,1.21a3.59,3.59,0,0,0-1.63-.39,2,2,0,0,0-1.57.66,2.58,2.58,0,0,0-.59,1.78,2.83,2.83,0,0,0,.48,1.77,1.62,1.62,0,0,0,1.38.61,5.2,5.2,0,0,0,1-.09V13.42H18.39Z" style="fill:#fff"/></g></svg>