<?xml version="1.0" encoding="utf-8"?>
<!-- Generator: Adobe Illustrator 14.0.0, SVG Export Plug-In . SVG Version: 6.00 Build 43363)  -->
<!DOCTYPE svg PUBLIC "-//W3C//DTD SVG 1.1//EN" "http://www.w3.org/Graphics/SVG/1.1/DTD/svg11.dtd">
<svg version="1.1" id="Ebene_1" xmlns="http://www.w3.org/2000/svg" xmlns:xlink="http://www.w3.org/1999/xlink" x="0px" y="0px"
	 width="40px" height="40px" viewBox="0 0 40 40" enable-background="new 0 0 40 40" xml:space="preserve">
<g>
	<defs>
		<path id="SVGID_1_" d="M21.477,5.104c0.165,0,0.299-0.134,0.299-0.299c0-0.166-0.134-0.299-0.299-0.299h-2.952
			c-0.165,0-0.299,0.134-0.299,0.299c0,0.165,0.134,0.299,0.299,0.299H21.477z"/>
	</defs>
	<clipPath id="SVGID_2_">
		<use xlink:href="#SVGID_1_"  overflow="visible"/>
	</clipPath>
	<g clip-path="url(#SVGID_2_)">
		<defs>
			<rect id="SVGID_3_" x="-2.451" y="-2.447" width="44.904" height="44.903"/>
		</defs>
		<clipPath id="SVGID_4_">
			<use xlink:href="#SVGID_3_"  overflow="visible"/>
		</clipPath>
		<rect x="16.729" y="3.008" clip-path="url(#SVGID_4_)" width="6.544" height="3.592"/>
	</g>
</g>
<g>
	<defs>
		<path id="SVGID_5_" d="M24.756,19.215c0.248,0,0.449-0.201,0.449-0.449c0-0.248-0.201-0.449-0.449-0.449h-9.47
			c-0.248,0-0.449,0.201-0.449,0.449c0,0.248,0.201,0.449,0.449,0.449H24.756z"/>
	</defs>
	<clipPath id="SVGID_6_">
		<use xlink:href="#SVGID_5_"  overflow="visible"/>
	</clipPath>
	<g clip-path="url(#SVGID_6_)">
		<defs>
			<rect id="SVGID_7_" x="-2.451" y="-2.447" width="44.904" height="44.903"/>
		</defs>
		<clipPath id="SVGID_8_">
			<use xlink:href="#SVGID_7_"  overflow="visible"/>
		</clipPath>
		<rect x="13.34" y="16.82" clip-path="url(#SVGID_8_)" width="13.362" height="3.892"/>
	</g>
</g>
<g>
	<defs>
		<path id="SVGID_9_" d="M24.92,31.702c0.248,0,0.449-0.201,0.449-0.448c0-0.248-0.201-0.449-0.449-0.449h-9.839
			c-0.248,0-0.449,0.201-0.449,0.449c0,0.247,0.201,0.448,0.449,0.448H24.92z"/>
	</defs>
	<clipPath id="SVGID_10_">
		<use xlink:href="#SVGID_9_"  overflow="visible"/>
	</clipPath>
	<g clip-path="url(#SVGID_10_)">
		<defs>
			<rect id="SVGID_11_" x="-2.451" y="-2.447" width="44.904" height="44.903"/>
		</defs>
		<clipPath id="SVGID_12_">
			<use xlink:href="#SVGID_11_"  overflow="visible"/>
		</clipPath>
		<rect x="13.136" y="29.308" clip-path="url(#SVGID_12_)" width="13.73" height="3.892"/>
	</g>
</g>
<g>
	<defs>
		<path id="SVGID_13_" d="M16.163,36.483l0.518,0.276h6.395c0.417,0,0.614-0.118,0.741-0.338c0.084-0.147,0.119-0.308,0.121-0.337
			V15.327c0-1.488-0.897-2.451-2.144-3.036c-0.444-0.209-0.759-0.552-0.951-0.97c-0.172-0.375-0.223-0.739-0.214-1.03
			c0,0,0-2.459,0-2.473c0-0.089,0-0.169,0-0.291c0-0.18,0-0.375,0-0.58c-0.001-0.564-0.001-1.124-0.003-1.646
			c-0.004-1.267,0.005-2.047-0.021-2.047c0,0-0.895,0-1.232,0c-0.057,0,0,4.58,0,4.58s0,2.42,0,2.439
			c0.009,0.308-0.042,0.671-0.214,1.047c-0.191,0.417-0.506,0.761-0.952,0.97c-1.244,0.584-2.142,1.547-2.142,3.036
			c0,0,0,20.761,0,20.76C16.064,36.164,16.091,36.334,16.163,36.483z M25.677,36.521L25.37,37.32
			c-0.44,0.764-1.224,1.235-2.295,1.235H16.68c-1.027,0-1.759-0.506-2.138-1.296c-0.122-0.257-0.198-0.521-0.239-0.784
			c-0.026-0.161-0.035-0.296-0.035-0.391V15.327c0-2.345,1.369-3.812,3.174-4.662c0.038-0.018,0.06-0.042,0.083-0.093
			c0.039-0.083,0.053-0.191,0.051-0.282V7.834V2.859c0-0.586,0.307-1.037,0.771-1.262c0.243-0.118,0.467-0.154,0.663-0.153
			l2.042,0.015L20.97,1.462c0.017,0,0.017,0,0.039-0.002c0.214-0.009,0.45,0.029,0.696,0.164c0.419,0.229,0.673,0.662,0.694,1.201
			c0.012,0.296,0.019,1.171,0.023,2.471c0,0.524,0.001,1.084,0.002,1.649c0,0.206,0,0.401,0,0.582c0,0.122,0,0.202,0,0.307
			c0,0,0,2.496,0,2.491c-0.002,0.056,0.014,0.164,0.052,0.247c0.023,0.051,0.046,0.075,0.082,0.093
			c0.658,0.309,1.303,0.738,1.865,1.341c0.827,0.887,1.31,1.997,1.31,3.32l-0.001,20.792C25.729,36.217,25.713,36.355,25.677,36.521
			z"/>
	</defs>
	<clipPath id="SVGID_14_">
		<use xlink:href="#SVGID_13_"  overflow="visible"/>
	</clipPath>
	<g clip-path="url(#SVGID_14_)">
		<defs>
			<rect id="SVGID_15_" x="-2.451" y="-2.447" width="44.904" height="44.903"/>
		</defs>
		<clipPath id="SVGID_16_">
			<use xlink:href="#SVGID_15_"  overflow="visible"/>
		</clipPath>
		<rect x="12.771" y="-0.053" clip-path="url(#SVGID_16_)" width="14.459" height="40.105"/>
	</g>
</g>
</svg>
