<?xml version="1.0" encoding="UTF-8"?>
<svg width="560px" height="560px" viewBox="0 0 560 560" version="1.1" xmlns="http://www.w3.org/2000/svg" xmlns:xlink="http://www.w3.org/1999/xlink">
    <title>wineries</title>
    <g id="Page-1" stroke="none" stroke-width="1" fill="none" fill-rule="evenodd">
        <g id="wineries" fill="#000000" fill-rule="nonzero">
            <path d="M272.323523,105.062312 C276.253438,100.982688 282.784118,100.978703 286.719008,105.053529 L286.719008,105.053529 L455.252283,279.580293 C457.952741,282.376787 459.462023,286.112475 459.462023,290 C459.462023,298.043152 453.120891,304.644183 445.105322,304.986285 L445.105322,304.986285 L444.891853,304.993113 L444.462023,305 L420.240029,305 L420.241029,444 C420.241029,452.179407 413.694243,458.82973 405.554857,459 L405.554857,459 L148.241029,459 C139.956758,459 133.241029,452.284271 133.241029,444.000064 L133.241029,444.000064 L133.240029,305 L115.000082,305 C111.512955,305 108.141185,303.785301 105.459652,301.574999 L105.459652,301.574999 L105.164574,301.325324 C105.099645,301.268934 105.035446,301.21171 104.971993,301.153665 L104.971993,301.153665 L104.68699,300.891823 L104.334889,300.547798 C98.8111495,294.967235 98.5262421,286.045696 103.710791,280.123003 L103.710791,280.123003 L103.789947,280.033659 L104.115082,279.679647 Z M279.533029,126.405 L126.758029,285 L143.240077,285 C148.669292,285 153.087973,289.326633 153.236233,294.720033 L153.236233,294.720033 L153.240077,294.999936 L153.241029,439 L400.241029,439 L400.240077,295.000064 C400.240042,289.570799 404.566722,285.15207 409.960171,285.003842 L409.960171,285.003842 L410.240077,285 L432.683029,285 L279.533029,126.405 Z M282.447215,198 C287.970062,198 292.447215,202.477153 292.447215,208 L292.447215,208 L292.447974,248.369805 C303.526015,252.556605 311.23027,261.846265 311.23027,272.633864 C311.23027,273.762443 311.244979,274.889252 311.240001,276.000467 L310.786092,387.061443 C310.752256,395.32166 304.046505,402 295.786218,402 L262.241029,402 C253.956758,402 247.241029,395.284271 247.241029,387 L247.241029,276 L247.24306,275.585865 L247.241029,272.633864 C247.241029,261.513053 255.428862,251.984149 267.059824,247.996546 L267.060617,208 C267.060617,202.477153 271.537769,198 277.060617,198 L277.060617,198 Z M300.884,363.033 L257.241,363.457 L257.241028,387 C257.241028,389.688755 259.363336,391.881818 262.02414,391.99538 L262.241028,392 L295.786218,392 C298.467188,392 300.656894,389.889509 300.780697,387.236729 L300.786176,387.020481 L300.884,363.033 Z M301.124,304.504 L257.241,304.958 L257.241,353.456 L300.925,353.031 L301.124,304.504 Z M279.235896,256 C266.857725,256 257.443151,263.727422 257.24424,272.351006 L257.241028,272.629488 L257.241,294.958 L301.165,294.503 L301.177029,291.547 L301.170232,291.550206 L301.241113,275.475664 L301.230788,273.049118 L301.23027,272.633864 C301.23027,263.894362 291.747035,256 279.235896,256 Z M282.447,222 L277.06,222 L277.060029,244.686 L279.957719,244.509266 C280.102352,244.500449 280.247266,244.497924 280.39205,244.501692 L280.39205,244.501692 L280.609078,244.512062 L282.447029,244.64 L282.447,222 Z M282.447215,208 L277.060617,208 L277.06,212 L282.447,212 L282.447215,208 Z" id="Combined-Shape"></path>
        </g>
    </g>
</svg>