<?xml version="1.0" encoding="UTF-8"?>
<svg width="560px" height="560px" viewBox="0 0 560 560" version="1.1" xmlns="http://www.w3.org/2000/svg" xmlns:xlink="http://www.w3.org/1999/xlink">
    <title>winebarrel</title>
    <g id="Page-1" stroke="none" stroke-width="1" fill="none" fill-rule="evenodd">
        <g id="winebarrel" fill="#000000" fill-rule="nonzero">
            <path d="M279.1,100 C307.429323,100 335.870337,104.904474 364.423043,114.713421 L365.827365,115.199781 C367.949188,115.940563 369.759618,117.374498 370.966628,119.270287 C405.722209,173.859123 423.1,227.795779 423.1,281.080256 C423.1,333.846241 406.058758,386.569964 371.976273,439.251425 L370.938256,440.847821 C369.746846,442.670944 367.992824,444.055274 365.942755,444.790429 C337.66691,454.930143 308.869325,460 279.55,460 C250.678239,460 222.042017,455.083746 193.641334,445.251237 L192.244768,444.763709 C190.20037,444.044126 188.445091,442.679825 187.243239,440.87624 C153.08108,389.610059 136,336.823069 136,282.51527 C136,228.213443 153.077323,173.814234 187.23197,119.317645 C188.438662,117.392266 190.265098,115.935257 192.410479,115.186573 C221.422269,105.062191 250.318776,100 279.1,100 Z M279.1,120 C253.948522,120 228.639911,124.209611 203.105873,132.672958 L202.318,132.936 L202.263868,133.024451 C171.622842,182.897823 156.314016,232.143564 156.004782,281.004238 L156,282.51527 C156,331.23894 170.914302,378.781732 201.065127,425.484565 L202.04,426.986 L202.907308,427.278049 C227.870601,435.618887 252.93512,439.847588 278.173205,439.995954 L279.55,440 C305.180695,440 330.370969,435.794655 355.203782,427.35682 L356.03,427.072 L356.14147,426.900421 C387.257539,378.323534 402.784741,330.293196 403.095248,282.541942 L403.1,281.080256 C403.1,233.282209 387.852643,184.533546 356.984416,134.614723 L355.956,132.961 L355.1851,132.703133 C330.077035,124.371239 305.186903,120.152065 280.44918,120.004037 L279.1,120 Z M325.45488,187.830655 C339.878224,217.782283 347.1,248.923059 347.1,281.200195 C347.1,313.419177 339.90505,346.349191 325.548169,379.963884 C324.463546,382.503383 321.525615,383.682792 318.986116,382.598169 C316.446617,381.513546 315.267208,378.575615 316.351831,376.036116 C330.19495,343.624324 337.1,312.021135 337.1,281.200195 C337.1,250.437411 330.221776,220.778056 316.44512,192.169345 C315.247024,189.681369 316.292678,186.693217 318.780655,185.49512 C321.268631,184.297024 324.256783,185.342678 325.45488,187.830655 Z M360.590104,143.905374 C361.746934,146.412804 360.652056,149.383273 358.144626,150.540104 C331.497643,162.833981 305.13791,169 279.1,169 C253.025963,169 227.518238,162.816309 202.629489,150.479881 C200.15532,149.253527 199.143765,146.253659 200.370119,143.779489 C201.596473,141.30532 204.596341,140.293765 207.070511,141.520119 C230.601771,153.183691 254.594046,159 279.1,159 C303.642081,159 328.582348,153.166019 353.955374,141.459896 C356.462804,140.303066 359.433273,141.397944 360.590104,143.905374 Z" id="Combined-Shape"></path>
        </g>
    </g>
</svg>