<svg width="252px" height="1015px" viewBox="0 0 252 1015" version="1.1" xmlns="http://www.w3.org/2000/svg" xmlns:xlink="http://www.w3.org/1999/xlink">
    <g id="Page-1" stroke="none" stroke-width="1" fill="none" fill-rule="evenodd">
        <path d="M251.5,969.3 C251.5,969.3 253.3,992.5 238.4,1004.1 C238.4,1004.1 218.8,1016.9 126.2,1013.6 C33.6,1016.9 14,1004.1 14,1004.1 C-0.9,992.6 0.9,969.3 0.9,969.3 L1.5,459.3 C-0.7,375.6 3.6,361.6 3.6,361.6 C11.8,311.2 58.6,272.1 58.6,272.1 C72.7,262.4 76,241.5 76,241.5 L80.8,57.4 C77.8,54.4 76,50.4 76,50.4 L76,28 C76,28 76.8,24.4 81.7,21.7 L82,19.6 C80.3,3.4 89.7,1.1 89.7,1.1 C95.9,0.8 119.5,0.2 125.5,0.1 L125.6,0.1 C125.6,0.1 125.8,0.1 126.2,0.1 C126.6,0.1 126.8,0.1 126.8,0.1 L126.9,0.1 C132.9,0.2 156.5,0.7 162.7,1.1 C162.7,1.1 172,3.4 170.3,19.6 L170,21.7 C174.9,24.4 175,28 175,28 L175,50.4 C175,50.4 174,54.4 171,57.4 L176.2,241.5 C176.2,241.5 179.6,262.4 193.7,272.1 C193.7,272.1 240.6,311.2 248.8,361.6 C248.8,361.6 253.1,375.5 250.9,459.3 L251.5,969.3 Z M107.399456,526.780675 C107.117859,524.611323 104.920388,523.159447 102.752075,523.439684 C100.583763,523.719922 99.1339429,525.917269 99.4155402,528.086621 C99.6744767,529.8804 99.9302446,535.368234 97.376856,538.0084 C95.6745969,539.76851 92.9237573,540.38507 89.2084835,540.003825 C81.0886018,539.056339 76.4443894,532.021294 75.7678899,525.804731 C75.4409706,522.884235 75.0815642,513.181028 86.4311741,508.96026 C93.9490367,506.174441 101.279274,507.772156 108.421887,513.753404 C114.286141,518.529437 117.651995,524.359266 117.651995,524.359266 C118.745898,526.253961 121.273456,526.932278 123.166669,525.839232 C125.059882,524.746185 125.736221,522.218096 124.642319,520.323401 C124.474026,520.03191 120.603294,513.327606 113.774606,507.553768 C104.327715,499.599325 93.9488766,497.429789 83.7028354,501.20774 C72.644489,505.260347 66.3921503,515.282949 67.9069446,526.651024 C69.4217388,538.019099 77.7877224,546.791932 88.5581338,547.958083 C95.0080838,548.703739 99.9660603,547.201543 103.432064,543.451496 C109.098707,537.459271 107.613071,527.82331 107.399456,526.780675 Z M128.397698,590.056463 C128.313551,589.910718 124.588291,574.377681 126.84043,556.753885 C129.817399,533.65909 141.215339,517.750759 160.765648,509.572625 C162.827154,508.77107 163.733271,506.304646 162.930632,504.24179 C162.127993,502.178935 159.807551,501.186711 157.746046,501.988266 C135.697336,511.220197 122.351195,529.807943 119.095958,555.783984 C116.559053,574.932483 120.559413,591.278329 120.750367,591.945392 C121.154935,593.655091 122.578925,594.776227 124.248857,594.978057 C124.708414,595.101387 125.229455,594.994891 125.604865,594.972476 C127.604885,594.400747 128.909073,592.28748 128.397698,590.056463 Z M104.54341,614.322436 C104.497928,604.82664 96.8051156,597.219773 87.3130627,597.258838 C77.8210098,597.297903 70.2223295,604.988573 70.2678116,614.484369 C70.3132934,623.980165 78.0061063,631.587032 87.4981592,631.547967 C96.9902122,631.508902 104.588892,623.818232 104.54341,614.322436 Z M141.615171,614.295087 C141.569689,604.799291 133.79273,597.046678 124.384823,597.231489 C114.89277,597.270554 107.29409,604.961224 107.339572,614.45702 C107.385054,623.952816 115.077866,631.559683 124.56992,631.520618 C134.061972,631.481553 141.660653,623.790882 141.615171,614.295087 Z M178.602785,614.121992 C178.557303,604.626196 170.86449,597.019329 161.372437,597.058394 C151.880384,597.097459 144.281704,604.788129 144.327186,614.283925 C144.372668,623.779721 152.06548,631.386588 161.557533,631.347523 C171.049586,631.308458 178.648267,623.617788 178.602785,614.121992 Z M86.1521378,646.705339 C86.106656,637.209543 78.3296967,629.45693 68.9217902,629.641741 C59.4297373,629.680806 51.8310572,637.371476 51.8765391,646.867272 C51.8378747,656.217322 59.6148338,663.969935 69.1068867,663.93087 C78.5989395,663.891805 86.19762,656.201135 86.1521378,646.705339 Z M123.139752,646.532244 C123.09427,637.036448 115.401457,629.429581 105.909404,629.468646 C96.4173512,629.507711 88.8186709,637.198381 88.864153,646.694177 C88.9096349,656.189973 96.6024478,663.79684 106.094501,663.757775 C115.586554,663.71871 123.185234,656.02804 123.139752,646.532244 Z M160.357144,646.420814 C160.311662,636.925018 152.618849,629.318151 143.126796,629.357217 C133.634743,629.396282 126.036063,637.086952 126.081545,646.582748 C126.127027,656.078544 133.81984,663.68541 143.311893,663.646345 C152.803945,663.60728 160.402626,655.91661 160.357144,646.420814 Z M197.199126,646.3318 C197.153644,636.836004 189.460831,629.229137 179.968778,629.268202 C170.476725,629.307267 162.878045,636.997937 162.923527,646.493733 C162.969009,655.989529 170.661822,663.596396 180.153875,663.557331 C189.645928,663.518266 197.244608,655.827596 197.199126,646.3318 Z M104.748479,678.915147 C104.848629,669.335271 97.07167,661.582658 87.5181317,661.851549 C78.0260787,661.890614 70.4273986,669.581284 70.4728805,679.07708 C70.5183626,688.572876 78.2111753,696.179743 87.7032282,696.140678 C97.195281,696.101613 104.793961,688.410943 104.748479,678.915147 Z M141.736093,678.742052 C141.690611,669.246256 133.997798,661.639389 124.505746,661.678454 C115.013693,661.717519 107.415012,669.40819 107.460494,678.903986 C107.505976,688.399781 115.198789,696.006648 124.690842,695.967583 C134.182895,695.928518 141.781575,688.237848 141.736093,678.742052 Z M178.807854,678.714703 C178.762372,669.218907 170.985413,661.466294 161.577506,661.651105 C152.085453,661.69017 144.486773,669.38084 144.532255,678.876636 C144.577737,688.372432 152.270549,695.979299 161.762602,695.940234 C171.254655,695.901169 178.853335,688.210499 178.807854,678.714703 Z M123.299499,710.373811 C123.254017,700.878015 115.561204,693.271148 106.069151,693.310214 C96.5770983,693.349279 88.9784182,701.039949 89.0239001,710.535745 C89.0693821,720.03154 96.7621948,727.638407 106.254248,727.599342 C115.746301,727.560277 123.344981,719.869607 123.299499,710.373811 Z M160.371259,710.346462 C160.325777,700.850666 152.778596,693.159719 143.140912,693.282865 C133.648859,693.321929 126.050178,701.0126 126.09566,710.508395 C126.056996,719.858446 133.833955,727.611058 143.326008,727.571992 C152.81806,727.532927 160.416741,719.842257 160.371259,710.346462 Z M142.018811,742.123967 C141.973329,732.62817 134.19637,724.875559 124.788463,725.060369 C115.296411,725.099434 107.69773,732.790104 107.743212,742.2859 C107.704548,751.635951 115.481507,759.388564 124.97356,759.349499 C134.465614,759.310434 142.064294,751.619764 142.018811,742.123967 Z" id="Combined-Shape" fill="#9D9D9D" fill-rule="nonzero"></path>
    </g>
</svg>