<svg width="20px" height="24px" viewBox="0 0 20 24" version="1.1" xmlns="http://www.w3.org/2000/svg" xmlns:xlink="http://www.w3.org/1999/xlink">
    <g id="Produkt-Seite" stroke="none" stroke-width="1" fill="none" fill-rule="evenodd">
        <g id="Desktop" transform="translate(-1290.000000, -843.000000)" fill-rule="nonzero">
            <g id="Expertise" transform="translate(1290.000000, 843.000000)">
                <g id="Group-2">
                    <path d="M16.6666667,0 C17.2839504,0 17.8086422,0.208807046 18.2407407,0.626420455 C18.6728393,1.04403386 18.8888889,1.55113659 18.8888889,2.14772727 L18.8888889,22.9090909 L10,17.8977273 L1.11111111,22.9090909 L1.11111111,2.14772727 C1.11111111,1.55113659 1.32716073,1.04403386 1.75925926,0.626420455 C2.19135779,0.208807046 2.71604962,0 3.33333333,0 L16.6666667,0 Z" id="Badge" fill="#FF3A52"></path>
                    <path d="M0.550000012,23.0900603 L10,18.1288104 L19.45,23.0900603 L19.45,2.25 C19.45,1.78298136 19.2745862,1.39957689 18.9029027,1.06506179 C18.5195108,0.720009022 18.0607563,0.550000012 17.5,0.550000012 L2.5,0.550000012 C1.93924369,0.550000012 1.48048924,0.720009022 1.09709728,1.06506179 C0.725413828,1.39957689 0.550000012,1.78298136 0.550000012,2.25 L0.550000012,23.0900603 Z" id="Badge" stroke="#D0021B" stroke-width="1.10000002"></path>
                </g>
            </g>
        </g>
    </g>
</svg>